<svg width="17" height="17" viewBox="0 0 17 17" fill="none" xmlns="http://www.w3.org/2000/svg">
<g id="Calendar Icon">
<path id="Vector" d="M7.93902 10.4335V9.23402H9.13835V10.4335H7.93902ZM4.9579 10.4335V9.23402H6.15723V10.4335H4.9579ZM10.9201 10.4335V9.23402H12.1195V10.4335H10.9201ZM7.93902 13.1265V11.927H9.13835V13.1265H7.93902ZM4.9579 13.1265V11.927H6.15723V13.1265H4.9579ZM10.9201 13.1265V11.927H12.1195V13.1265H10.9201ZM2.5 15.4961V3.41873H5.39876V1.49609H6.4219V3.41873H10.6849V1.49609H11.6786V3.41873H14.5774V15.4961H2.5ZM3.49371 14.5024H13.5837V7.85811H3.49371V14.5024ZM3.49371 6.86441H13.5837V4.41243H3.49371V6.86441Z" fill="white"/>
</g>
</svg>
