<svg width="40" height="40" viewBox="0 0 40 40" fill="none" xmlns="http://www.w3.org/2000/svg">
<path d="M35.4866 18.9876L32.9866 15.8626C32.9179 15.7814 32.8304 15.7126 32.7304 15.6751L23.5991 12.0251C23.9304 11.9314 24.1241 11.5939 24.0366 11.2689C23.9492 10.9376 23.6054 10.7376 23.2742 10.8251C23.0429 10.8876 22.8116 10.9626 22.5866 11.0564C22.3991 11.1314 22.2804 11.3001 22.2304 11.4814L20.2367 10.6814C20.0867 10.6189 19.9241 10.6189 19.7741 10.6814L7.27415 15.6814C7.17415 15.7189 7.08665 15.7876 7.0179 15.8689L4.5179 18.9939C4.3929 19.1501 4.34915 19.3501 4.39915 19.5439C4.44915 19.7376 4.58665 19.8939 4.77415 19.9626L6.8804 20.8064V32.5064C6.8804 32.7626 7.03665 32.9939 7.27415 33.0876L19.7741 38.0876C19.7741 38.0876 19.7867 38.0876 19.7992 38.0876C19.8679 38.1126 19.9367 38.1251 20.0117 38.1251C20.0866 38.1251 20.1554 38.1064 20.2242 38.0876H20.2492L32.7492 33.0876C32.9867 32.9939 33.1429 32.7626 33.1429 32.5064V20.8064L35.2492 19.9626C35.4304 19.8876 35.5742 19.7314 35.6241 19.5439C35.6741 19.3501 35.6304 19.1501 35.5054 18.9939L35.4866 18.9876ZM19.9992 11.9251L30.8179 16.2501L19.9992 20.5751L9.1804 16.2501L19.9992 11.9251ZM7.69915 17.0064L18.9866 21.5189L17.3054 23.6251L6.0179 19.1126L7.69915 17.0064ZM8.12415 21.3001L17.2679 24.9564C17.5241 25.0564 17.8179 24.9814 17.9867 24.7689L19.3742 23.0376V36.5814L8.12415 32.0814V21.3001ZM31.8741 32.0814L20.6241 36.5814V23.0376L22.0117 24.7689C22.1304 24.9189 22.3116 25.0064 22.4991 25.0064C22.5742 25.0064 22.6554 24.9939 22.7304 24.9626L31.8741 21.3064V32.0876V32.0814ZM22.6992 23.6251L21.0179 21.5189L32.3054 17.0064L33.9867 19.1126L22.6992 23.6251ZM11.4679 8.07511L13.0054 9.85011C13.4429 10.3564 14.0241 10.6251 14.6241 10.6251C14.8616 10.6251 15.1054 10.5814 15.3429 10.4939C16.2741 10.1439 16.8804 9.21261 16.8804 8.11886V7.63761C17.2617 7.29386 17.5054 6.80011 17.5054 6.25011C17.5054 5.70011 17.2617 5.20636 16.8804 4.86261V4.38136C16.8804 3.28761 16.2804 2.35011 15.3429 2.00636C14.5116 1.69386 13.6179 1.94386 13.0054 2.65011L11.4679 4.42511C10.6304 4.61261 9.99915 5.35636 9.99915 6.25011C9.99915 7.14386 10.6304 7.88761 11.4679 8.07511ZM16.2492 6.25011C16.2492 6.59386 15.9679 6.87511 15.6242 6.87511H11.8741C11.5304 6.87511 11.2491 6.59386 11.2491 6.25011C11.2491 5.90636 11.5304 5.62511 11.8741 5.62511H15.6242C15.9679 5.62511 16.2492 5.90636 16.2492 6.25011ZM14.8991 9.32511C14.6992 9.40011 14.3116 9.46261 13.9429 9.03761L13.1554 8.12511H15.6179C15.6179 8.81261 15.2304 9.20011 14.8929 9.32511H14.8991ZM13.9429 3.46886C14.3054 3.04386 14.6992 3.10636 14.8991 3.18136C15.2304 3.30636 15.6179 3.69386 15.6242 4.38136H13.1616L13.9492 3.46886H13.9429ZM19.2929 6.25636C19.2929 5.91261 19.5742 5.63136 19.9179 5.63136H20.2304C20.5742 5.63136 20.8554 5.91261 20.8554 6.25636C20.8554 6.60011 20.5742 6.88136 20.2304 6.88136H19.9179C19.5742 6.88136 19.2929 6.60011 19.2929 6.25636ZM25.3741 11.3314C25.3242 10.9876 25.5554 10.6751 25.8991 10.6189C26.0554 10.5939 26.2117 10.5501 26.3617 10.4876C26.6804 10.3501 27.0491 10.4939 27.1866 10.8126C27.3242 11.1314 27.1804 11.5001 26.8617 11.6376C26.6117 11.7439 26.3554 11.8189 26.0867 11.8626C26.0554 11.8626 26.0242 11.8689 25.9929 11.8689C25.6867 11.8689 25.4241 11.6439 25.3741 11.3376V11.3314ZM25.4116 6.18761C25.4679 5.84386 25.7867 5.61261 26.1304 5.67511C26.3992 5.71886 26.6554 5.79386 26.8992 5.90636C27.2117 6.05011 27.3554 6.41886 27.2117 6.73136C27.1054 6.96261 26.8804 7.10011 26.6429 7.10011C26.5554 7.10011 26.4679 7.08136 26.3867 7.04386C26.2429 6.98136 26.0867 6.93136 25.9242 6.90636C25.5867 6.85011 25.3554 6.53136 25.4116 6.18761ZM27.4804 9.01886C27.4929 8.93761 27.4991 8.85011 27.4991 8.76261C27.4991 8.68761 27.4992 8.60636 27.4867 8.53761C27.4429 8.19386 27.6866 7.88136 28.0304 7.84386C28.3804 7.79386 28.6866 8.04386 28.7241 8.38761C28.7367 8.51261 28.7491 8.63761 28.7491 8.76886C28.7491 8.91261 28.7367 9.05011 28.7241 9.18761C28.6804 9.50011 28.4116 9.73136 28.1054 9.73136C28.0804 9.73136 28.0492 9.73136 28.0242 9.73136C27.6804 9.68761 27.4429 9.37511 27.4867 9.03136L27.4804 9.01886ZM19.9304 13.4501C20.0429 13.2376 20.1741 13.0314 20.3179 12.8314C20.5241 12.5501 20.9116 12.4939 21.1929 12.6939C21.4741 12.9001 21.5304 13.2876 21.3304 13.5689C21.2241 13.7189 21.1241 13.8751 21.0366 14.0376C20.9242 14.2501 20.7054 14.3689 20.4866 14.3689C20.3866 14.3689 20.2867 14.3439 20.1929 14.2939C19.8867 14.1314 19.7741 13.7501 19.9366 13.4501H19.9304ZM22.1866 6.25636C22.1866 5.91261 22.4679 5.63136 22.8116 5.63136H23.4554C23.7991 5.63136 24.0804 5.91261 24.0804 6.25636C24.0804 6.60011 23.7991 6.88136 23.4554 6.88136H22.8116C22.4679 6.88136 22.1866 6.60011 22.1866 6.25636ZM19.2991 16.5689V16.2564C19.2991 15.9126 19.5804 15.6314 19.9241 15.6314C20.2679 15.6314 20.5492 15.9126 20.5492 16.2564V16.5689C20.5492 16.9126 20.2679 17.1939 19.9241 17.1939C19.5804 17.1939 19.2991 16.9126 19.2991 16.5689Z" fill="#A1A1A1"/>
</svg>
