<svg width="20" height="20" viewBox="0 0 20 20" fill="none" xmlns="http://www.w3.org/2000/svg">
<g id="Frame" clip-path="url(#clip0_142_3742)">
<path id="Vector" d="M7 9C7 9.79565 7.31607 10.5587 7.87868 11.1213C8.44129 11.6839 9.20435 12 10 12C10.7956 12 11.5587 11.6839 12.1213 11.1213C12.6839 10.5587 13 9.79565 13 9C13 8.20435 12.6839 7.44129 12.1213 6.87868C11.5587 6.31607 10.7956 6 10 6C9.20435 6 8.44129 6.31607 7.87868 6.87868C7.31607 7.44129 7 8.20435 7 9Z" stroke="#0068FA" stroke-linecap="round" stroke-linejoin="round"/>
<path id="Vector_2" d="M15.5088 14.2985L11.3771 18.4303C11.0119 18.7951 10.5168 19 10.0006 19C9.48446 19 8.98939 18.7951 8.62421 18.4303L4.49152 14.2985C3.40208 13.2091 2.66018 11.821 2.35962 10.3098C2.05907 8.7987 2.21336 7.23237 2.803 5.80892C3.39263 4.38547 4.39112 3.16884 5.6722 2.31286C6.95328 1.45688 8.45942 1 10.0002 1C11.5409 1 13.047 1.45688 14.3281 2.31286C15.6092 3.16884 16.6077 4.38547 17.1973 5.80892C17.787 7.23237 17.9412 8.7987 17.6407 10.3098C17.3401 11.821 16.5982 13.2091 15.5088 14.2985Z" stroke="#0068FA" stroke-linecap="round" stroke-linejoin="round"/>
</g>
<defs>
<clipPath id="clip0_142_3742">
<rect width="20" height="20" fill="white"/>
</clipPath>
</defs>
</svg>
