<svg width="16" height="16" viewBox="0 0 16 16" fill="none" xmlns="http://www.w3.org/2000/svg">
<path d="M7.33301 2C10.2785 2 12.6669 4.38765 12.667 7.33301L12.6602 7.60742C12.6001 8.79328 12.1504 9.87502 11.4395 10.7324L14.04 13.333L13.333 14.04L10.7324 11.4395C9.80914 12.2043 8.62554 12.666 7.33301 12.666C4.38764 12.6658 2 10.2784 2 7.33301C2.00012 4.38776 4.38772 2.00018 7.33301 2ZM7.33301 3C4.93998 3.00018 3.00012 4.94006 3 7.33301C3 9.72606 4.93991 11.6658 7.33301 11.666C9.72626 11.666 11.667 9.72617 11.667 7.33301C11.6669 4.93995 9.72618 3 7.33301 3Z" fill="#707070"/>
</svg>
