<svg width="33" height="33" viewBox="0 0 33 33" fill="none" xmlns="http://www.w3.org/2000/svg">
<path fill-rule="evenodd" clip-rule="evenodd" d="M19.7522 14.8089V18.7113L18.4514 20.0121H14.5489L13.2481 18.7113V14.8089C13.2481 13.5973 13.0743 13.2383 11.3246 10.9435C10.4911 9.85021 9.99609 8.48495 9.99609 7.00404C9.99609 3.41199 12.9081 0.5 16.5001 0.5C20.0922 0.5 23.0042 3.41199 23.0042 7.00404C23.0042 8.48495 22.5092 9.85021 21.6757 10.9435C19.926 13.2384 19.7522 13.5973 19.7522 14.8089Z" stroke="black" stroke-miterlimit="22.9256" stroke-linecap="round" stroke-linejoin="round"/>
<path d="M13.7598 17.4105H19.2405" stroke="black" stroke-miterlimit="22.9256" stroke-linecap="round" stroke-linejoin="round"/>
<path d="M16.5 14.5503V8.30481" stroke="black" stroke-miterlimit="22.9256" stroke-linecap="round" stroke-linejoin="round"/>
<path d="M17.8008 7.00403L16.5 8.30484L15.1992 7.00403" stroke="black" stroke-miterlimit="22.9256" stroke-linecap="round" stroke-linejoin="round"/>
<path d="M13.5146 14.8088H19.4849" stroke="black" stroke-miterlimit="22.9256" stroke-linecap="round" stroke-linejoin="round"/>
<path d="M5.76855 7.00403H7.06943" stroke="black" stroke-miterlimit="22.9256" stroke-linecap="square"/>
<path d="M7.20605 1.63818L8.33262 2.28859" stroke="black" stroke-miterlimit="22.9256" stroke-linecap="square"/>
<path d="M7.20605 12.3699L8.33262 11.7195" stroke="black" stroke-miterlimit="22.9256" stroke-linecap="square"/>
<path d="M27.2315 7.00403H25.9307" stroke="black" stroke-miterlimit="22.9256" stroke-linecap="square"/>
<path d="M25.7935 1.63818L24.667 2.28859" stroke="black" stroke-miterlimit="22.9256" stroke-linecap="square"/>
<path d="M25.7935 12.3699L24.667 11.7195" stroke="black" stroke-miterlimit="22.9256" stroke-linecap="square"/>
<path d="M1.15039 27.622V25.2967C4.69548 25.2967 6.58608 23.9632 8.29313 23.3104C11.8359 21.9555 14.5603 23.0394 16.5 26.4712C18.4397 23.0394 21.164 21.9555 24.7069 23.3104C26.4139 23.9632 28.3045 25.2967 31.8496 25.2967V27.622" stroke="black" stroke-miterlimit="22.9256" stroke-linecap="round"/>
<path d="M16.5 26.4712V28.496" stroke="black" stroke-miterlimit="22.9256" stroke-linecap="round" stroke-linejoin="round"/>
<path fill-rule="evenodd" clip-rule="evenodd" d="M16.4999 29.1464C16.9857 28.3049 17.7495 27.9471 18.7206 27.9471H32.4999V30.874H18.6819C18.4021 31.8143 17.5312 32.5 16.4999 32.5C15.4687 32.5 14.5979 31.8143 14.318 30.874H0.5V27.9471H14.2793C15.2504 27.9471 16.0142 28.3049 16.4999 29.1464Z" stroke="black" stroke-miterlimit="22.9256" stroke-linecap="round"/>
</svg>
