<svg width="30" height="30" viewBox="0 0 30 30" fill="none" xmlns="http://www.w3.org/2000/svg">
<g clip-path="url(#clip0_1135_16100)">
<path d="M3.75 15C3.75 15.9946 4.14509 16.9484 4.84835 17.6517C5.55161 18.3549 6.50544 18.75 7.5 18.75C8.49456 18.75 9.44839 18.3549 10.1517 17.6517C10.8549 16.9484 11.25 15.9946 11.25 15C11.25 14.0054 10.8549 13.0516 10.1517 12.3483C9.44839 11.6451 8.49456 11.25 7.5 11.25C6.50544 11.25 5.55161 11.6451 4.84835 12.3483C4.14509 13.0516 3.75 14.0054 3.75 15Z" stroke="black" stroke-linecap="round" stroke-linejoin="round"/>
<path d="M18.75 7.5C18.75 8.49456 19.1451 9.44839 19.8483 10.1517C20.5516 10.8549 21.5054 11.25 22.5 11.25C23.4946 11.25 24.4484 10.8549 25.1517 10.1517C25.8549 9.44839 26.25 8.49456 26.25 7.5C26.25 6.50544 25.8549 5.55161 25.1517 4.84835C24.4484 4.14509 23.4946 3.75 22.5 3.75C21.5054 3.75 20.5516 4.14509 19.8483 4.84835C19.1451 5.55161 18.75 6.50544 18.75 7.5Z" stroke="black" stroke-linecap="round" stroke-linejoin="round"/>
<path d="M18.75 22.5C18.75 23.4946 19.1451 24.4484 19.8483 25.1517C20.5516 25.8549 21.5054 26.25 22.5 26.25C23.4946 26.25 24.4484 25.8549 25.1517 25.1517C25.8549 24.4484 26.25 23.4946 26.25 22.5C26.25 21.5054 25.8549 20.5516 25.1517 19.8483C24.4484 19.1451 23.4946 18.75 22.5 18.75C21.5054 18.75 20.5516 19.1451 19.8483 19.8483C19.1451 20.5516 18.75 21.5054 18.75 22.5Z" stroke="black" stroke-linecap="round" stroke-linejoin="round"/>
<path d="M10.875 13.375L19.125 9.125" stroke="black" stroke-linecap="round" stroke-linejoin="round"/>
<path d="M10.875 16.625L19.125 20.875" stroke="black" stroke-linecap="round" stroke-linejoin="round"/>
</g>
<defs>
<clipPath id="clip0_1135_16100">
<rect width="30" height="30" fill="white"/>
</clipPath>
</defs>
</svg>
