<svg width="33" height="33" viewBox="0 0 33 33" fill="none" xmlns="http://www.w3.org/2000/svg">
<path d="M21.8336 32.1667V31.3885C21.8336 28.3333 19.4336 25.8334 16.5003 25.8334C13.567 25.8334 11.167 28.3332 11.167 31.3885V32.1748" stroke="black" stroke-miterlimit="22.9256" stroke-linecap="round" stroke-linejoin="round"/>
<path d="M16.8883 25.8076C18.5308 25.5924 19.688 24.0863 19.4728 22.4438C19.2576 20.8012 17.7515 19.644 16.1089 19.8592C14.4663 20.0744 13.3092 21.5805 13.5244 23.2231C13.7396 24.8657 15.2457 26.0228 16.8883 25.8076Z" stroke="black" stroke-miterlimit="22.9256" stroke-linecap="round" stroke-linejoin="round"/>
<path d="M27.3924 25.8238C29.0443 25.6984 30.2817 24.2577 30.1563 22.6058C30.0309 20.9539 28.5901 19.7165 26.9382 19.8419C25.2864 19.9673 24.0489 21.4081 24.1743 23.0599C24.2998 24.7118 25.7405 25.9492 27.3924 25.8238Z" stroke="black" stroke-miterlimit="22.9256" stroke-linecap="round" stroke-linejoin="round"/>
<path d="M16.5 17.2322H0.5V19.8337H16.5V17.2322Z" stroke="black" stroke-miterlimit="2.6131" stroke-linecap="round"/>
<path d="M5.88281 24.3865H11.1166" stroke="black" stroke-miterlimit="2.6131" stroke-linecap="round" stroke-linejoin="round"/>
<path d="M1.80078 20.1589V32.5H32.4999V31.3886C32.4999 28.3333 30.0999 25.8334 27.1666 25.8334C24.2333 25.8334 21.8333 28.3332 21.8333 31.3886" stroke="black" stroke-miterlimit="2.6131" stroke-linecap="round"/>
<path fill-rule="evenodd" clip-rule="evenodd" d="M26.8366 2.55912C27.591 2.81687 28.2785 3.21902 28.8661 3.73258L30.7655 2.90039L32.4999 5.90441L30.8305 7.13251C30.9047 7.51189 30.9439 7.90376 30.9439 8.3048C30.9439 8.7059 30.9047 9.09777 30.8305 9.47709L32.4999 10.7052L30.7655 13.7092L28.8661 12.877C28.2785 13.3905 27.5911 13.7928 26.8366 14.0505L26.6078 16.1097H23.1391L22.9103 14.0507C22.1558 13.7929 21.4683 13.3908 20.8808 12.8771L18.9814 13.7093L17.2471 10.7052L18.9166 9.47709C18.8424 9.09777 18.803 8.7059 18.803 8.30486C18.803 7.90376 18.8422 7.51189 18.9165 7.13257L17.2471 5.90441L18.9814 2.90039L20.8808 3.73258C21.4685 3.21908 22.1558 2.81681 22.9103 2.55912L23.139 0.5H26.6078L26.8366 2.55912ZM24.8735 6.13687C26.0708 6.13687 27.0415 7.10747 27.0415 8.30486C27.0415 9.50226 26.0709 10.4729 24.8735 10.4729C23.6761 10.4729 22.7055 9.50226 22.7055 8.30486C22.7055 7.10747 23.6761 6.13687 24.8735 6.13687Z" stroke="black" stroke-miterlimit="2.6131" stroke-linecap="round" stroke-linejoin="round"/>
<path d="M7.87016 11.5599C9.48721 10.8901 10.2551 9.03622 9.58528 7.41917C8.91546 5.80212 7.06158 5.03424 5.44453 5.70406C3.82748 6.37387 3.0596 8.22775 3.72942 9.8448C4.39923 11.4619 6.25311 12.2297 7.87016 11.5599Z" stroke="black" stroke-miterlimit="2.6131" stroke-linecap="round" stroke-linejoin="round"/>
<path d="M10.6437 16.9069V13.6016M10.6437 13.6016L10.6452 13.6033C10.6447 13.6028 10.6442 13.6022 10.6437 13.6016ZM10.6437 13.6016C11.9135 13.0491 13.046 12.2465 13.9764 11.2586C14.4675 10.7366 14.4425 9.91535 13.9205 9.42423C13.3986 8.93311 12.5773 8.95815 12.0862 9.4801C11.3871 10.2224 10.5444 10.8214 9.60708 11.228C8.70926 11.6175 7.71199 11.8337 6.65723 11.8337C4.46472 11.8337 2.6709 13.6276 2.6709 15.8201V16.9068" stroke="black" stroke-miterlimit="2.6131" stroke-linecap="round" stroke-linejoin="round"/>
</svg>
