<svg width="26" height="34" viewBox="0 0 26 34" fill="none" xmlns="http://www.w3.org/2000/svg">
<path d="M0.5 29.9891C0.5 31.4244 1.67447 32.5988 3.10965 32.5988H25.2916V0.5H3.10965C1.67434 0.5 0.5 1.67434 0.5 3.10965V29.9891ZM0.5 29.9891C0.5 28.5538 1.67434 27.3795 3.10965 27.3795H24.9654" stroke="black" stroke-miterlimit="22.9256" stroke-linecap="round"/>
<path d="M3.11035 29.9891H24.9661" stroke="black" stroke-miterlimit="22.9256" stroke-linecap="round"/>
<path d="M3.11035 0.826172V27.0532" stroke="black" stroke-miterlimit="22.9256" stroke-linecap="round"/>
<path fill-rule="evenodd" clip-rule="evenodd" d="M14.2009 4.7406C15.1343 4.7406 15.9194 5.37507 16.1486 6.23626C16.9197 5.78942 17.9235 5.89589 18.5835 6.55594C19.2436 7.21599 19.35 8.21973 18.9032 8.99082C19.7644 9.22014 20.3989 10.0052 20.3989 10.9385C20.3989 11.8719 19.7644 12.657 18.9032 12.8862C19.35 13.6573 19.2436 14.6611 18.5835 15.3211C17.9235 15.9812 16.9197 16.0876 16.1486 15.6408C15.9193 16.502 15.1343 17.1365 14.2009 17.1365C13.2675 17.1365 12.4825 16.502 12.2531 15.6408C11.4821 16.0876 10.4783 15.9812 9.81827 15.3211C9.15822 14.6611 9.05182 13.6573 9.49859 12.8862C8.6374 12.6569 8.00293 11.8719 8.00293 10.9385C8.00293 10.0051 8.6374 9.22007 9.49859 8.99082C9.05182 8.21973 9.15822 7.21599 9.81827 6.55594C10.4783 5.89589 11.4821 5.78949 12.2531 6.23626C12.4825 5.37507 13.2675 4.7406 14.2009 4.7406Z" stroke="black" stroke-miterlimit="22.9256" stroke-linecap="round"/>
<path d="M17.2516 16.1066V23.1388L14.2015 21.3434L11.1514 23.1388V16.1066" stroke="black" stroke-miterlimit="22.9256" stroke-linecap="round"/>
<path fill-rule="evenodd" clip-rule="evenodd" d="M14.201 13.0263C15.3509 13.0263 16.2887 12.0884 16.2887 10.9386C16.2887 9.78867 15.3509 8.85083 14.201 8.85083C13.0511 8.85083 12.1133 9.78867 12.1133 10.9386C12.1133 12.0884 13.0511 13.0263 14.201 13.0263Z" stroke="black" stroke-miterlimit="22.9256" stroke-linecap="round"/>
</svg>
